<svg xmlns="http://www.w3.org/2000/svg" viewBox="0 0 18.44 21.07"><defs><style>.cls-1{fill:#fff;}</style></defs><g id="Layer_2" data-name="Layer 2"><g id="Layer_1-2" data-name="Layer 1"><path id="FontAwsome_building_" data-name="FontAwsome building " class="cls-1" d="M18,19.76h-.83V1a1,1,0,0,0-1-1H2.31a1,1,0,0,0-1,1V19.76H.49a.49.49,0,0,0-.49.49v.82H18.44v-.82A.49.49,0,0,0,18,19.76ZM5.27,3.13a.5.5,0,0,1,.49-.5H7.41a.5.5,0,0,1,.49.5V4.78a.49.49,0,0,1-.49.49H5.76a.49.49,0,0,1-.49-.49Zm0,4a.49.49,0,0,1,.49-.49H7.41a.49.49,0,0,1,.49.49V8.73a.49.49,0,0,1-.49.49H5.76a.49.49,0,0,1-.49-.49h0Zm2.14,6.09H5.76a.49.49,0,0,1-.49-.49h0V11a.49.49,0,0,1,.49-.49H7.41A.49.49,0,0,1,7.9,11h0v1.65a.49.49,0,0,1-.49.49Zm3.13,6.59H7.9V16.3a.49.49,0,0,1,.49-.49H10a.49.49,0,0,1,.49.49h0Zm2.63-7.08a.49.49,0,0,1-.49.49H11a.49.49,0,0,1-.49-.49h0V11a.49.49,0,0,1,.49-.49h1.65a.49.49,0,0,1,.49.49h0Zm0-3.95a.49.49,0,0,1-.49.49H11a.49.49,0,0,1-.49-.49h0V7.08A.49.49,0,0,1,11,6.59h1.65a.49.49,0,0,1,.49.49h0Zm0-4a.49.49,0,0,1-.49.5H11a.49.49,0,0,1-.49-.5h0V3.13a.5.5,0,0,1,.49-.5h1.65a.5.5,0,0,1,.49.5h0Z"/></g></g></svg>