<svg xmlns="http://www.w3.org/2000/svg" viewBox="0 0 22 22"><defs><style>.cls-1{fill:#fff;}</style></defs><g id="Layer_2" data-name="Layer 2"><g id="Layer_1-2" data-name="Layer 1"><path id="FontAwsome_globe-americas_" data-name="FontAwsome globe-americas " class="cls-1" d="M11,0A11,11,0,1,0,22,11,11,11,0,0,0,11,0Zm3.65,15.86-.5.5a1,1,0,0,0-.27.48c-.07.25-.13.5-.22.74l-.77,2.08a8.55,8.55,0,0,1-1.89.21V18.66a3.37,3.37,0,0,0-1-2.28,1.38,1.38,0,0,1-.42-1V14a1.37,1.37,0,0,0-.73-1.24c-.63-.35-1.54-.85-2.16-1.16a6.44,6.44,0,0,1-1.4-1l0,0a5,5,0,0,1-.8-.92L2.92,7.38A8.86,8.86,0,0,1,7.5,2.86l1.06.53a.7.7,0,0,0,.95-.32.71.71,0,0,0,.08-.31v-.5a7.91,7.91,0,0,1,1.08-.11L11.92,3.4a.72.72,0,0,1,0,1l-.21.21-.46.46a.35.35,0,0,0,0,.5l.21.2a.35.35,0,0,1,0,.5l-.36.36a.32.32,0,0,1-.25.1h-.4a.35.35,0,0,0-.24.1l-.44.43a.34.34,0,0,0-.07.41l.69,1.38a.37.37,0,0,1-.16.48.32.32,0,0,1-.16,0H9.82a.32.32,0,0,1-.23-.09l-.41-.36A.72.72,0,0,0,8.49,9L7.1,9.46a.53.53,0,0,0-.34.67.63.63,0,0,0,.27.31l.49.24A3,3,0,0,0,8.87,11c.47,0,1,1.21,1.42,1.42h3a1.38,1.38,0,0,1,1,.42l.61.6a1.39,1.39,0,0,1,.4,1A2.06,2.06,0,0,1,14.65,15.86Zm3.85-4a1.09,1.09,0,0,1-.63-.44l-.8-1.2a1.06,1.06,0,0,1,0-1.18l.87-1.3a1.12,1.12,0,0,1,.41-.37L18.93,7a8.65,8.65,0,0,1,.86,5.1Z"/></g></g></svg>