<svg xmlns="http://www.w3.org/2000/svg" viewBox="0 0 17.53 20.03"><defs><style>.cls-1{fill:#fff;}.cls-2{fill:#1c3d82;}</style></defs><g id="Layer_2" data-name="Layer 2"><g id="Layer_1-2" data-name="Layer 1"><g id="Group_65" data-name="Group 65"><path id="FontAwsome_calendar_" data-name="FontAwsome calendar " class="cls-1" d="M.47,7.51H17.06a.48.48,0,0,1,.47.47V18.15A1.88,1.88,0,0,1,15.65,20H1.88A1.88,1.88,0,0,1,0,18.15H0V8A.47.47,0,0,1,.47,7.51ZM17.53,5.79V4.38A1.88,1.88,0,0,0,15.65,2.5H13.77v-2A.47.47,0,0,0,13.3,0H11.74a.47.47,0,0,0-.47.47v2h-5v-2A.47.47,0,0,0,5.79,0H4.23a.47.47,0,0,0-.47.47v2H1.88A1.88,1.88,0,0,0,0,4.38H0V5.79a.47.47,0,0,0,.47.47H17.06A.47.47,0,0,0,17.53,5.79Z"/><path id="FontAwsome_pen_" data-name="FontAwsome pen " class="cls-2" d="M9.44,10.82l2.1,2.1L7,17.49l-1.87.2a.4.4,0,0,1-.44-.35v-.09l.21-1.86Zm3.4-.31-1-1a.81.81,0,0,0-1.12,0l-.93.93,2.1,2.1.93-.93a.78.78,0,0,0,0-1.11Z"/></g></g></g></svg>