<svg xmlns="http://www.w3.org/2000/svg" viewBox="0 0 23.2 18.56"><defs><style>.cls-1{fill:#fff;}</style></defs><g id="Layer_2" data-name="Layer 2"><g id="Layer_1-2" data-name="Layer 1"><path id="FontAwsome_user-edit_" data-name="FontAwsome user-edit " class="cls-1" d="M8.12,9.28A4.64,4.64,0,1,0,3.48,4.64h0A4.64,4.64,0,0,0,8.12,9.28Zm3.25,1.16h-.6a6.27,6.27,0,0,1-5.29,0H4.87A4.87,4.87,0,0,0,0,15.32v1.5a1.74,1.74,0,0,0,1.74,1.74h10a1.82,1.82,0,0,1-.1-.77l.25-2.21,0-.4.29-.28L15,12.1A4.83,4.83,0,0,0,11.37,10.44ZM13,15.71l-.24,2.21a.58.58,0,0,0,.51.64h.13l2.2-.25,5-5L18,10.71Zm9.94-6L21.58,8.38a.87.87,0,0,0-1.23,0L19,9.75l-.15.15,2.6,2.6L23,11A.87.87,0,0,0,23,9.75Z"/></g></g></svg>