<svg xmlns="http://www.w3.org/2000/svg" viewBox="0 0 16.71 19.09"><defs><style>.cls-1{fill:#fff;}</style></defs><g id="Layer_2" data-name="Layer 2"><g id="Layer_1-2" data-name="Layer 1"><path id="FontAwsome_trash_" data-name="FontAwsome trash " class="cls-1" d="M16.11,1.19H11.64L11.29.5a.9.9,0,0,0-.8-.5H6.22a.88.88,0,0,0-.8.5l-.35.7H.6a.6.6,0,0,0-.6.6H0V3a.6.6,0,0,0,.6.6H16.11a.6.6,0,0,0,.6-.6h0V1.79A.6.6,0,0,0,16.11,1.19ZM2,17.41a1.79,1.79,0,0,0,1.79,1.68h9.17a1.79,1.79,0,0,0,1.79-1.68l.79-12.64H1.19Z"/></g></g></svg>