<svg xmlns="http://www.w3.org/2000/svg" viewBox="0 0 17.53 20.03"><defs><style>.cls-1{fill:#fff;}</style></defs><g id="Layer_2" data-name="Layer 2"><g id="Layer_1-2" data-name="Layer 1"><path id="FontAwsome_calendar-times_" data-name="FontAwsome calendar-times " class="cls-1" d="M17.06,6.26H.47A.47.47,0,0,1,0,5.79V4.38A1.88,1.88,0,0,1,1.87,2.5H3.76v-2A.47.47,0,0,1,4.23,0H5.79a.47.47,0,0,1,.47.47v2h5v-2A.47.47,0,0,1,11.74,0H13.3a.47.47,0,0,1,.47.47v2h1.88a1.88,1.88,0,0,1,1.88,1.87h0V5.79A.47.47,0,0,1,17.06,6.26ZM.47,7.51H17.06a.47.47,0,0,1,.47.47V18.15A1.88,1.88,0,0,1,15.65,20H1.88A1.88,1.88,0,0,1,0,18.15H0V8A.47.47,0,0,1,.47,7.51Zm10.07,6.26,1.88-1.88a.48.48,0,0,0,0-.67h0l-1.11-1.1a.45.45,0,0,0-.66,0h0L8.77,12,6.88,10.12a.45.45,0,0,0-.66,0h0l-1.11,1.1a.48.48,0,0,0,0,.67h0L7,13.77,5.11,15.65a.48.48,0,0,0,0,.67h0l1.11,1.1a.45.45,0,0,0,.66,0h0l1.88-1.88,1.89,1.88a.45.45,0,0,0,.66,0h0l1.11-1.1a.48.48,0,0,0,0-.67h0Z"/></g></g></svg>