<svg xmlns="http://www.w3.org/2000/svg" viewBox="0 0 15.19 24.2"><defs><style>.cls-1{fill:#fff;}</style></defs><g id="Layer_2" data-name="Layer 2"><g id="Layer_1-2" data-name="Layer 1"><g id="Group_64" data-name="Group 64"><g id="Group_63" data-name="Group 63"><g id="Group_62" data-name="Group 62"><circle id="Ellipse_101" data-name="Ellipse 101" class="cls-1" cx="10.49" cy="16.11" r="1.17"/><circle id="Ellipse_102" data-name="Ellipse 102" class="cls-1" cx="5.05" cy="10.7" r="1.17"/><path id="Path_607" data-name="Path 607" class="cls-1" d="M0,24.2l7.38-4.49c.07-.07.25-.07.35-.07a.23.23,0,0,1,.21.07l7.25,4.49V5.66H0Zm10.49-5.87a2.23,2.23,0,1,1,2.23-2.22h0a2.22,2.22,0,0,1-2.23,2.22ZM12.12,9h0a.58.58,0,0,1,0,.78l-7.7,7.7a.53.53,0,0,1-.75,0l0,0a.6.6,0,0,1,0-.74L11.38,9a.6.6,0,0,1,.74,0ZM5.05,8.48a2.23,2.23,0,1,1,0,4.45h0A2.26,2.26,0,0,1,2.83,10.7,2.21,2.21,0,0,1,5.05,8.48Z"/><rect id="Rectangle_321" data-name="Rectangle 321" class="cls-1" width="15.19" height="4.59"/></g></g></g></g></g></svg>