<svg xmlns="http://www.w3.org/2000/svg" viewBox="0 0 22.02 16.51"><defs><style>.cls-1{fill:#fff;}</style></defs><g id="Layer_2" data-name="Layer 2"><g id="Layer_1-2" data-name="Layer 1"><path id="FontAwsome_envelope_" data-name="FontAwsome envelope " class="cls-1" d="M21.6,5.45a.27.27,0,0,1,.36,0,.22.22,0,0,1,.06.15v8.8A2.07,2.07,0,0,1,20,16.51H2.06A2.06,2.06,0,0,1,0,14.45V5.66A.26.26,0,0,1,.26,5.4a.25.25,0,0,1,.16.06c1,.75,2.24,1.7,6.62,4.89.91.66,2.44,2.05,4,2s3.1-1.41,4-2C19.37,7.16,20.64,6.2,21.6,5.45ZM11,11c1,0,2.43-1.26,3.16-1.78,5.7-4.14,6.14-4.5,7.45-5.53a1,1,0,0,0,.4-.82V2.07A2.06,2.06,0,0,0,20,0H2.06A2.06,2.06,0,0,0,0,2.06v.82a1,1,0,0,0,.4.81c1.32,1,1.75,1.4,7.46,5.54C8.57,9.75,10,11,11,11Z"/></g></g></svg>