<svg xmlns="http://www.w3.org/2000/svg" viewBox="0 0 238.94 494.93"><defs><style>.cls-1{fill:#fff;}</style></defs><g id="Layer_2" data-name="Layer 2"><g id="Capa_1" data-name="Capa 1"><path class="cls-1" d="M204.8,34.13V0H34.14V34.13H0v460.8H68.27V426.66h102.4v68.27h68.27V34.13ZM68.27,384H34.14V349.86H68.27Zm0-68.27H34.14V281.6H68.27Zm0-68.27H34.14V213.33H68.27Zm0-68.26H34.14V145.06H68.27Zm0-68.27H34.14V76.8H68.27ZM136.54,384H102.4V349.86h34.14Zm0-68.27H102.4V281.6h34.14Zm0-68.27H102.4V213.33h34.14Zm0-68.26H102.4V145.06h34.14Zm0-68.27H102.4V76.8h34.14ZM204.8,384H170.67V349.86H204.8Zm0-68.27H170.67V281.6H204.8Zm0-68.27H170.67V213.33H204.8Zm0-68.26H170.67V145.06H204.8Zm0-68.27H170.67V76.8H204.8Z"/></g></g></svg>