<svg xmlns="http://www.w3.org/2000/svg" viewBox="0 0 18.44 18.44"><defs><style>.cls-1{fill:#fff;}</style></defs><g id="Layer_2" data-name="Layer 2"><g id="Layer_1-2" data-name="Layer 1"><path id="FontAwsome_phone-alt_" data-name="FontAwsome phone-alt " class="cls-1" d="M17.91,13l-4-1.73a.87.87,0,0,0-1,.25l-1.78,2.18A13.29,13.29,0,0,1,4.7,7.35L6.89,5.56a.87.87,0,0,0,.25-1L5.41.52a.88.88,0,0,0-1-.5L.67.89A.87.87,0,0,0,0,1.73,16.71,16.71,0,0,0,16.71,18.44h0a.89.89,0,0,0,.85-.67L18.42,14A.87.87,0,0,0,17.91,13Z"/></g></g></svg>