<svg xmlns="http://www.w3.org/2000/svg" viewBox="0 0 16.71 19.09"><defs><style>.cls-1{fill:#fff;}</style></defs><g id="Layer_2" data-name="Layer 2"><g id="Layer_1-2" data-name="Layer 1"><path id="FontAwsome_trash-restore_" data-name="FontAwsome trash-restore " class="cls-1" d="M2,17.41a1.79,1.79,0,0,0,1.79,1.68h9.17a1.78,1.78,0,0,0,1.78-1.68l.79-12.64H1.19ZM4.6,10.86,7.93,7.34a.58.58,0,0,1,.81,0l0,0,3.33,3.52a.64.64,0,0,1,0,.9.66.66,0,0,1-.4.17H9.55v4.18a.6.6,0,0,1-.6.6H7.76a.6.6,0,0,1-.6-.6h0V11.93H5a.64.64,0,0,1-.6-.67A.62.62,0,0,1,4.6,10.86ZM16.11,1.19H11.64L11.28.5a.9.9,0,0,0-.8-.5H6.22a.88.88,0,0,0-.8.5l-.35.7H.6a.6.6,0,0,0-.6.6H0V3a.6.6,0,0,0,.6.6H16.11a.6.6,0,0,0,.6-.6h0V1.79A.6.6,0,0,0,16.11,1.19Z"/></g></g></svg>