<svg xmlns="http://www.w3.org/2000/svg" viewBox="0 0 17.53 20.03"><defs><style>.cls-1{fill:#fff;}.cls-2{fill:#1c3d82;}</style></defs><g id="Layer_2" data-name="Layer 2"><g id="Layer_1-2" data-name="Layer 1"><path id="FontAwsome_calendar_" data-name="FontAwsome calendar " class="cls-1" d="M.47,7.51H17.06a.48.48,0,0,1,.47.47V18.15A1.88,1.88,0,0,1,15.65,20H1.88A1.88,1.88,0,0,1,0,18.15H0V8A.47.47,0,0,1,.47,7.51ZM17.53,5.79V4.38A1.88,1.88,0,0,0,15.65,2.5H13.77v-2A.47.47,0,0,0,13.3,0H11.74a.47.47,0,0,0-.47.47v2h-5v-2A.47.47,0,0,0,5.79,0H4.23a.47.47,0,0,0-.47.47v2H1.88A1.88,1.88,0,0,0,0,4.38H0V5.79a.47.47,0,0,0,.47.47H17.06A.47.47,0,0,0,17.53,5.79Z"/><path id="FontAwsome_trash-restore_" data-name="FontAwsome trash-restore " class="cls-2" d="M6,16.54a.77.77,0,0,0,.77.73h4a.78.78,0,0,0,.77-.73l.34-5.47H5.66ZM7.14,13.7l1.44-1.52a.24.24,0,0,1,.35,0H9l1.44,1.52a.28.28,0,0,1,0,.39.3.3,0,0,1-.17.08H9.28V16a.26.26,0,0,1-.26.26H8.5A.26.26,0,0,1,8.24,16h0v-1.8H7.32a.28.28,0,0,1-.26-.29A.3.3,0,0,1,7.14,13.7Zm5-4.18H10.18L10,9.22A.39.39,0,0,0,9.69,9H7.84a.4.4,0,0,0-.35.22l-.15.3H5.41a.26.26,0,0,0-.26.26h0v.51a.25.25,0,0,0,.26.26h6.71a.26.26,0,0,0,.26-.26h0V9.78A.26.26,0,0,0,12.12,9.52Z"/></g></g></svg>