<svg xmlns="http://www.w3.org/2000/svg" viewBox="0 0 18.81 21.57"><defs><style>.cls-1{fill:#fff;}.cls-2{fill:#1c3d82;}</style></defs><g id="Layer_2" data-name="Layer 2"><g id="Layer_1-2" data-name="Layer 1"><path class="cls-1" d="M9.44,10.78A5.39,5.39,0,1,0,4,5.39H4A5.39,5.39,0,0,0,9.44,10.78Z"/><path class="cls-1" d="M13.21,12.13h-.7a7.34,7.34,0,0,1-6.15,0h-.7A5.66,5.66,0,0,0,0,17.79v1.75a2,2,0,0,0,2,2l15.39-.11a6.92,6.92,0,0,1,0-.79V14.05A5.63,5.63,0,0,0,13.21,12.13Z"/><path class="cls-1" d="M18.81,17.78v1.76a2,2,0,0,1-2,2l-10.44,0V12.15a7.42,7.42,0,0,0,6.1,0h.71A5.66,5.66,0,0,1,18.81,17.78Z"/><path class="cls-2" d="M12.51,14.44a.27.27,0,0,0-.19-.08.29.29,0,0,0-.19.08L11.6,15a3.41,3.41,0,0,0-1-.65,3.18,3.18,0,0,0-1.18-.23,3.07,3.07,0,0,0-2,.69,3.33,3.33,0,0,0-1.12,1.81v0a.18.18,0,0,0,0,.09.18.18,0,0,0,.1,0h.82a.13.13,0,0,0,.13-.1,2.56,2.56,0,0,1,.22-.48,2,2,0,0,1,.77-.74,2.06,2.06,0,0,1,1-.27,2.09,2.09,0,0,1,1.45.56l-.57.58a.22.22,0,0,0-.08.18.24.24,0,0,0,.08.19.25.25,0,0,0,.18.08h1.86a.27.27,0,0,0,.27-.27V14.63A.26.26,0,0,0,12.51,14.44Z"/><path class="cls-2" d="M12.35,17.81h-.8a.12.12,0,0,0-.12.09c-.12.28-.19.44-.22.49a2.12,2.12,0,0,1-1.81,1,2,2,0,0,1-.77-.15A2.23,2.23,0,0,1,8,18.83l.57-.57a.26.26,0,0,0,.08-.19.25.25,0,0,0-.08-.18.27.27,0,0,0-.19-.08H6.48a.27.27,0,0,0-.26.26v1.86a.27.27,0,0,0,.08.19.25.25,0,0,0,.18.08.26.26,0,0,0,.19-.08l.54-.54a3.07,3.07,0,0,0,1,.65,2.91,2.91,0,0,0,1.17.23,3.06,3.06,0,0,0,2-.69A3.26,3.26,0,0,0,12.48,18v0a.11.11,0,0,0,0-.09A.1.1,0,0,0,12.35,17.81Z"/></g></g></svg>