<?xml version="1.0" encoding="utf-8"?>
<!-- Generator: Adobe Illustrator 24.2.3, SVG Export Plug-In . SVG Version: 6.00 Build 0)  -->
<svg version="1.1" id="_x31__x2C_5" xmlns="http://www.w3.org/2000/svg" xmlns:xlink="http://www.w3.org/1999/xlink" x="0px"
	 y="0px" viewBox="0 0 512 512" style="enable-background:new 0 0 512 512;" xml:space="preserve">
<path d="M192,213.3c-58.8,0-106.7-47.9-106.7-106.7S133.2,0,192,0s106.7,47.9,106.7,106.7S250.8,213.3,192,213.3z M192,32
	c-41.2,0-74.7,33.5-74.7,74.7s33.5,74.7,74.7,74.7s74.7-33.5,74.7-74.7S233.2,32,192,32z"/>
<path d="M138.7,448H16c-8.8,0-16-7.2-16-16v-74.7C0,301.5,45.5,256,101.3,256h181.3c27.6,0,54.3,11.4,73.1,31.3
	c6.1,6.4,5.8,16.5-0.6,22.6c-6.4,6-16.6,5.8-22.6-0.6c-12.8-13.5-30.9-21.2-49.8-21.2H101.3C63.1,288,32,319.1,32,357.4V416h106.7
	c8.8,0,16,7.2,16,16S147.5,448,138.7,448z"/>
<path d="M309.3,512c-5.7,0-11-3.1-13.9-8.1l-38.1-66.6H208c-8.8,0-16-7.2-16-16s7.2-16,16-16h58.7c5.7,0,11.1,3.1,13.9,8.1
	l27.3,47.7l51-110.5c2.5-5.5,8-9.1,14-9.3c6.3,0.3,11.7,3.1,14.6,8.3l59.5,109H496c8.8,0,16,7.2,16,16s-7.2,16-16,16h-58.7
	c-5.8,0-11.2-3.2-14-8.3l-48.8-89.4l-50.7,109.8c-2.5,5.4-7.9,9-13.8,9.3C309.8,512,309.6,512,309.3,512L309.3,512z"/>
</svg>
