<svg xmlns="http://www.w3.org/2000/svg" viewBox="0 0 18.29 20.49"><defs><style>.cls-1{fill:#fff;}</style></defs><g id="Layer_2" data-name="Layer 2"><g id="Layer_1-2" data-name="Layer 1"><path class="cls-1" d="M18,2.87a.66.66,0,0,0-.48-.56L9.33,0A.73.73,0,0,0,9,0L.73,2.31a.69.69,0,0,0-.48.56c0,.34-1.14,8.46,1.66,12.49A13.17,13.17,0,0,0,9,20.47l.16,0,.15,0a13.14,13.14,0,0,0,7.09-5.11C19.18,11.33,18.09,3.21,18,2.87ZM14.46,7.6,8.84,13.22a.67.67,0,0,1-.47.2.69.69,0,0,1-.48-.2L4.42,9.75a.66.66,0,0,1,0-.95l.69-.69a.68.68,0,0,1,.95,0l2.31,2.31L12.82,6a.66.66,0,0,1,.95,0l.69.69A.66.66,0,0,1,14.46,7.6Z"/></g></g></svg>