<svg xmlns="http://www.w3.org/2000/svg" viewBox="0 0 17.53 20.03"><defs><style>.cls-1{fill:#fff;}.cls-2{fill:#1c3d82;}</style></defs><g id="Layer_2" data-name="Layer 2"><g id="Layer_1-2" data-name="Layer 1"><g id="Group_66" data-name="Group 66"><path id="FontAwsome_calendar_" data-name="FontAwsome calendar " class="cls-1" d="M.47,7.51H17.06a.47.47,0,0,1,.47.47V18.15A1.88,1.88,0,0,1,15.65,20H1.88A1.88,1.88,0,0,1,0,18.15H0V8A.47.47,0,0,1,.47,7.51ZM17.53,5.79V4.38A1.88,1.88,0,0,0,15.66,2.5H13.77v-2A.47.47,0,0,0,13.3,0H11.74a.47.47,0,0,0-.47.47v2h-5v-2A.47.47,0,0,0,5.79,0H4.23a.47.47,0,0,0-.47.47v2H1.88A1.88,1.88,0,0,0,0,4.38H0V5.79a.47.47,0,0,0,.47.47H17.06A.47.47,0,0,0,17.53,5.79Z"/><path id="FontAwsome_sync-alt_" data-name="FontAwsome sync-alt " class="cls-2" d="M10.3,11.87A2.46,2.46,0,0,0,6.84,12a2.49,2.49,0,0,0-.58,1.07.18.18,0,0,1-.17.14H5.25A.18.18,0,0,1,5.08,13v0a3.62,3.62,0,0,1,6-1.94l.52-.51a.35.35,0,0,1,.6.24v2a.35.35,0,0,1-.35.35h-2a.35.35,0,0,1-.35-.34.35.35,0,0,1,.1-.26ZM5.37,14.23h2a.35.35,0,0,1,.35.35.33.33,0,0,1-.1.25L7,15.44a2.44,2.44,0,0,0,3.45-.12A2.36,2.36,0,0,0,11,14.25a.18.18,0,0,1,.17-.13H12a.17.17,0,0,1,.17.17s0,0,0,0A3.6,3.6,0,0,1,8,17.2a3.51,3.51,0,0,1-1.82-.94l-.52.52a.35.35,0,0,1-.6-.24V14.59a.35.35,0,0,1,.34-.36Z"/></g></g></g></svg>