<svg xmlns="http://www.w3.org/2000/svg" viewBox="0 0 20.53 18.82"><defs><style>.cls-1{fill:#fff;}</style></defs><g id="Layer_2" data-name="Layer 2"><g id="Layer_1-2" data-name="Layer 1"><g id="Group_61" data-name="Group 61"><g id="Group_58" data-name="Group 58"><path id="Path_604" data-name="Path 604" class="cls-1" d="M18,0H2.57A2.57,2.57,0,0,0,0,2.57V16.25a2.58,2.58,0,0,0,2.57,2.57H18a2.57,2.57,0,0,0,2.56-2.57V2.57A2.57,2.57,0,0,0,18,0Zm0,17.11H2.57a.86.86,0,0,1-.86-.86v-12H18.82v12A.87.87,0,0,1,18,17.11Z"/></g><g id="Group_59" data-name="Group 59"><path id="Path_605" data-name="Path 605" class="cls-1" d="M13.88,12.08a.86.86,0,0,0-1.16.35A2.76,2.76,0,0,1,9,13.58l-.18-.1.41-.41a.65.65,0,0,0,0-.91A.64.64,0,0,0,8.77,12H6.63a.64.64,0,0,0-.64.65v2.13a.64.64,0,0,0,1.09.46l.49-.49a4.51,4.51,0,0,0,6.3-.92,4,4,0,0,0,.35-.56.84.84,0,0,0-.34-1.15Z"/></g><g id="Group_60" data-name="Group 60"><path id="Path_606" data-name="Path 606" class="cls-1" d="M14.14,6.89a.65.65,0,0,0-.7.14L13,7.52a4.5,4.5,0,0,0-6.29.92A6.65,6.65,0,0,0,6.3,9a.86.86,0,0,0,.35,1.16h0a.79.79,0,0,0,.4.1.85.85,0,0,0,.75-.45,2.76,2.76,0,0,1,3.72-1.16l.18.11-.4.41a.64.64,0,0,0,.45,1.09h2.14a.64.64,0,0,0,.64-.64V7.48a.64.64,0,0,0-.4-.59Z"/></g></g></g></g></svg>