<svg xmlns="http://www.w3.org/2000/svg" viewBox="0 0 425.1 430"><defs><style>.cls-1{fill:#fff;}</style></defs><g id="Layer_2" data-name="Layer 2"><g id="Layer_1-2" data-name="Layer 1"><path class="cls-1" d="M240.84,88.68A88.68,88.68,0,1,1,152.16,0,88.68,88.68,0,0,1,240.84,88.68Z"/><path class="cls-1" d="M152.06,235.14c-41.09.11-79.38,16.1-107.67,45.1C17.2,308.23,1.5,345.92,0,387.21l235.14-.5v-107a47.84,47.84,0,0,1,3.5-17.8,149.45,149.45,0,0,0-86.28-26.8Z"/><path class="cls-1" d="M392.11,246.74h-4.2V262a7,7,0,0,1-14,0v-15.3H300.23V262a7,7,0,0,1-14,0v-15.3H282a33,33,0,0,0-33,33v14.69H425V279.74a32.88,32.88,0,0,0-32.89-33Z"/><path class="cls-1" d="M249.14,397a33,33,0,0,0,33,33h110a33,33,0,0,0,33-33V308.43h-176Zm33.19-57H391.91a7,7,0,1,1,0,14H282.33a7,7,0,1,1,0-14Zm0,46.49h63.39a7,7,0,0,1,0,14H282.33a7,7,0,1,1,0-14Z"/></g></g></svg>